<?xml version="1.0" encoding="UTF-8"?>
<svg width="122px" height="21px" viewBox="0 0 122 21" version="1.1" xmlns="http://www.w3.org/2000/svg" xmlns:xlink="http://www.w3.org/1999/xlink">
    <title>Group</title>
    <defs>
        <linearGradient x1="-0.137%" y1="49.6695652%" x2="100.326%" y2="49.6695652%" id="linearGradient-1">
            <stop stop-color="#E2525B" offset="0%"></stop>
            <stop stop-color="#E40943" offset="99.94%"></stop>
        </linearGradient>
        <linearGradient x1="0.3%" y1="49.8446154%" x2="99.859375%" y2="49.8446154%" id="linearGradient-2">
            <stop stop-color="#E2525B" offset="0%"></stop>
            <stop stop-color="#E40943" offset="99.94%"></stop>
        </linearGradient>
    </defs>
    <g id="Page-1" stroke="none" stroke-width="1" fill="none" fill-rule="evenodd">
        <g id="AE-Logo" transform="translate(-49.000000, -104.000000)" fill-rule="nonzero">
            <g id="Group" transform="translate(49.000000, 104.000000)">
                <g transform="translate(24.000000, 5.000000)" fill="#232E42">
                    <path d="M2.2,10.2 L0.3,10.2 L3.7,1.6 C3.9,1.1 4.1,0.8 4.5,0.6 C4.8,0.4 5.3,0.3 5.8,0.3 C6.3,0.3 6.7,0.4 7.1,0.6 C7.4,0.8 7.7,1.1 7.9,1.6 L11.2,10.2 L9.3,10.2 L6.3,2.4 C6.2,2.2 6.1,2.1 5.8,2.1 C5.6,2.1 5.4,2.2 5.3,2.4 L2.2,10.2 Z" id="Path"></path>
                    <path d="M20.3,0.5 L20.3,2.2 L15.4,2.2 C14.9,2.2 14.5,2.3 14.3,2.5 C14.1,2.7 14,3 14,3.4 C14,4.2 14.5,4.6 15.5,4.6 L20.3,4.6 L20.3,6.1 L15.5,6.1 C14.5,6.1 14,6.5 14,7.3 C14,7.7 14.1,8 14.4,8.2 C14.6,8.4 15,8.5 15.5,8.5 L20.4,8.5 L20.4,10.2 L15.5,10.2 C14.9,10.2 14.4,10.1 14,10 C13.6,9.9 13.3,9.7 13,9.4 C12.7,9.2 12.5,8.9 12.4,8.6 C12.3,8.3 12.2,7.9 12.2,7.5 C12.2,6.9 12.3,6.5 12.6,6.1 C12.8,5.7 13.2,5.4 13.6,5.3 C12.7,4.9 12.2,4.2 12.2,3.1 C12.2,2.7 12.3,2.4 12.4,2 C12.5,1.7 12.7,1.4 13,1.2 C13.3,1 13.6,0.8 14,0.7 C14.4,0.6 14.9,0.5 15.5,0.5 L20.3,0.5 L20.3,0.5 Z" id="Path"></path>
                    <path d="M26.6,0.5 C27.1,0.5 27.6,0.6 28,0.7 C28.4,0.9 28.7,1.1 29,1.3 C29.3,1.5 29.4,1.9 29.6,2.2 C29.7,2.6 29.8,2.9 29.8,3.3 C29.8,3.6 29.8,3.9 29.7,4.2 C29.6,4.5 29.5,4.8 29.3,5 C29.1,5.3 28.9,5.5 28.7,5.7 C28.4,5.9 28.1,6.1 27.7,6.2 L30,10.1 L28.1,10.1 L25.9,6.3 L23.4,6.3 C23.2,6.3 23.2,6.4 23.2,6.5 L23.2,10 L21.5,10 L21.5,6.2 C21.5,5.7 21.6,5.3 21.9,5 C22.1,4.8 22.5,4.6 23.1,4.6 L26.9,4.6 C27.1,4.6 27.3,4.6 27.5,4.5 C27.7,4.4 27.8,4.3 27.9,4.2 C28,4.1 28.1,3.9 28.1,3.8 C28.2,3.6 28.2,3.5 28.2,3.3 C28.2,3 28.1,2.7 27.9,2.4 C27.7,2.1 27.3,2 26.9,2 L21.6,2 L21.6,0.3 L26.6,0.3 L26.6,0.5 Z" id="Path"></path>
                    <path d="M36.6,0.5 C38,0.5 39.1,0.9 39.9,1.7 C40.7,2.5 41,3.7 41,5.4 C41,7 40.6,8.2 39.9,9 C39.1,9.8 38.1,10.2 36.6,10.2 L35.3,10.2 C33.9,10.2 32.8,9.8 32,9 C31.2,8.2 30.9,7 30.9,5.4 C30.9,3.8 31.3,2.5 32,1.7 C32.8,0.9 33.8,0.5 35.3,0.5 L36.6,0.5 Z M35.3,2.2 C34.4,2.2 33.7,2.4 33.2,2.9 C32.8,3.4 32.6,4.2 32.6,5.3 C32.6,6.4 32.8,7.2 33.2,7.7 C33.6,8.2 34.3,8.4 35.3,8.4 L36.6,8.4 C37.5,8.4 38.2,8.2 38.6,7.7 C39,7.2 39.2,6.4 39.2,5.3 C39.2,4.2 39,3.4 38.6,2.9 C38.2,2.4 37.5,2.2 36.6,2.2 L35.3,2.2 Z" id="Shape"></path>
                    <path d="M50,0.5 L50,2.2 L45,2.2 C44.6,2.2 44.2,2.3 44,2.5 C43.8,2.7 43.7,3 43.7,3.3 C43.7,3.4 43.7,3.6 43.8,3.7 C43.8,3.8 43.9,4 44,4.1 C44.1,4.2 44.3,4.3 44.4,4.4 C44.6,4.5 44.8,4.5 45.1,4.5 L47.4,4.5 C48.1,4.5 48.6,4.6 49,4.8 C49.4,5 49.8,5.2 50,5.5 C50.2,5.8 50.4,6.1 50.5,6.4 C50.6,6.7 50.6,7.1 50.6,7.4 C50.6,7.8 50.5,8.2 50.4,8.5 C50.3,8.8 50.1,9.1 49.9,9.4 C49.7,9.7 49.3,9.9 48.9,10 C48.5,10.1 48,10.2 47.5,10.2 L42.1,10.2 L42.1,8.5 L47.6,8.5 C48.1,8.5 48.4,8.4 48.6,8.2 C48.8,8 48.9,7.7 48.9,7.3 C48.9,7.1 48.9,7 48.8,6.8 C48.8,6.7 48.7,6.5 48.6,6.4 C48.5,6.3 48.3,6.2 48.1,6.1 C47.9,6 47.7,6 47.4,6 L45.1,6 C44.4,6 43.9,5.9 43.5,5.8 C43.1,5.6 42.8,5.4 42.5,5.2 C42.3,4.9 42.1,4.6 42,4.3 C41.9,4 41.9,3.6 41.9,3.3 C41.9,2.9 42,2.5 42.1,2.2 C42.2,1.9 42.4,1.6 42.6,1.3 C42.8,1.1 43.2,0.9 43.5,0.7 C43.9,0.6 44.3,0.5 44.9,0.5 L50,0.5 Z" id="Path"></path>
                    <polygon id="Path" points="54.5 0.5 54.5 10.2 52.8 10.2 52.8 0.5"></polygon>
                    <path d="M58.3,10.2 L56.6,10.2 L56.6,2.5 C56.6,1.8 56.8,1.3 57.2,0.9 C57.6,0.5 58.2,0.3 59,0.3 C59.7,0.3 60.2,0.5 60.6,0.8 C61,1.1 61.3,1.6 61.4,2.2 L62.8,8.1 C62.9,8.5 63.1,8.6 63.4,8.6 C63.7,8.6 64,8.4 64,8.1 L65.4,2.2 C65.5,1.6 65.8,1.1 66.2,0.8 C66.6,0.5 67.1,0.3 67.8,0.3 C68.6,0.3 69.2,0.5 69.6,0.9 C70,1.3 70.2,1.8 70.2,2.5 L70.2,10.2 L68.5,10.2 L68.5,2.6 C68.5,2.4 68.4,2.3 68.3,2.1 C68.2,2 68,1.9 67.8,1.9 C67.6,1.9 67.4,1.9 67.3,2 C67.2,2.1 67.1,2.2 67.1,2.4 L65.7,8.3 C65.5,8.9 65.3,9.4 64.9,9.8 C64.5,10.1 64,10.3 63.4,10.3 C62.7,10.3 62.2,10.1 61.8,9.8 C61.4,9.5 61.2,9 61,8.3 L59.6,2.4 C59.6,2.2 59.5,2.1 59.4,2 C59.3,1.9 59.1,1.9 58.9,1.9 C58.7,1.9 58.5,2 58.4,2.1 C58.3,2.2 58.2,2.4 58.2,2.6 L58.2,10.2 L58.3,10.2 Z" id="Path"></path>
                    <path d="M76.2,0.5 C76.7,0.5 77.2,0.6 77.6,0.7 C78,0.9 78.3,1.1 78.6,1.3 C78.9,1.6 79,1.9 79.2,2.2 C79.3,2.6 79.4,2.9 79.4,3.3 C79.4,3.7 79.3,4 79.2,4.4 C79.1,4.8 78.9,5.1 78.7,5.4 C78.5,5.7 78.1,5.9 77.7,6.1 C77.3,6.3 76.8,6.4 76.3,6.4 L73.3,6.4 C73.1,6.4 73.1,6.5 73.1,6.6 L73.1,10.1 L71.4,10.1 L71.4,6.3 C71.4,5.8 71.5,5.4 71.8,5.1 C72,4.9 72.4,4.7 73,4.7 L76.5,4.7 C76.7,4.7 76.9,4.7 77.1,4.6 C77.3,4.5 77.4,4.4 77.5,4.3 C77.6,4.2 77.7,4 77.7,3.9 C77.8,3.7 77.8,3.6 77.8,3.4 C77.8,3 77.7,2.7 77.5,2.5 C77.3,2.2 76.9,2.1 76.5,2.1 L71.4,2.1 L71.4,0.4 L76.2,0.4 L76.2,0.5 Z" id="Path"></path>
                    <path d="M82.1,0.5 L82.1,6.9 C82.1,7.1 82.1,7.3 82.2,7.6 C82.3,7.8 82.4,8 82.5,8.1 C82.7,8.2 82.9,8.4 83.1,8.5 C83.4,8.6 83.7,8.6 84.1,8.6 L87.9,8.6 L87.9,10.3 L84,10.3 C83.4,10.3 82.8,10.2 82.4,10 C81.9,9.8 81.6,9.6 81.3,9.3 C81,9 80.8,8.6 80.7,8.2 C80.6,7.8 80.5,7.3 80.5,6.9 L80.5,0.5 L82.1,0.5 L82.1,0.5 Z" id="Path"></path>
                    <path d="M97,0.5 L97,2.2 L92.1,2.2 C91.6,2.2 91.2,2.3 91,2.5 C90.8,2.7 90.7,3 90.7,3.4 C90.7,4.2 91.2,4.6 92.2,4.6 L97,4.6 L97,6.1 L92.2,6.1 C91.2,6.1 90.7,6.5 90.7,7.3 C90.7,7.7 90.8,8 91.1,8.2 C91.3,8.4 91.7,8.5 92.2,8.5 L97.1,8.5 L97.1,10.2 L92.2,10.2 C91.6,10.2 91.1,10.1 90.7,10 C90.3,9.9 90,9.7 89.7,9.4 C89.4,9.2 89.2,8.9 89.1,8.6 C89,8.3 88.9,7.9 88.9,7.5 C88.9,6.9 89,6.5 89.3,6.1 C89.5,5.7 89.9,5.4 90.3,5.3 C89.4,4.9 88.9,4.2 88.9,3.1 C88.9,2.7 89,2.4 89.1,2 C89.2,1.7 89.4,1.4 89.7,1.2 C90,1 90.3,0.8 90.7,0.7 C91.1,0.6 91.6,0.5 92.2,0.5 L97,0.5 L97,0.5 Z" id="Path"></path>
                </g>
                <g>
                    <path d="M13,10.9 L10.1,20 C10.4,20 10.8,20.1 11.1,20.1 C14,20.1 16.5,18.8 18.1,16.7 C19.3,15.1 20,13.1 20.1,11 L13,10.9 L13,10.9 Z" id="Path" fill="url(#linearGradient-1)"></path>
                    <path d="M15.7,2.3 L13.6,8.8 L20,8.8 C19.5,6 17.9,3.6 15.7,2.3 Z" id="Shape" fill="url(#linearGradient-2)"></path>
                    <path d="M6.8,14.7 C6.8,12 8.7,9.7 11.2,9 L13.6,1.3 C12.2,0.8 10.6,0.5 8.9,0.7 C4.3,1.3 0.8,5.1 0.5,9.7 C0.2,15.3 4.6,19.9 10.1,20 C10.1,20 10.1,20 10,20 C8.1,19 6.8,17 6.8,14.7 Z" id="Path" fill="#232E42"></path>
                </g>
            </g>
        </g>
    </g>
</svg>